<svg id="Capa_1" data-name="Capa 1" xmlns="http://www.w3.org/2000/svg" viewBox="0 0 370 172"><defs><style>.cls-1{fill:#fff;}.cls-2,.cls-3{fill:#176f7c;}.cls-2{fill-rule:evenodd;}</style></defs><rect class="cls-1" x="226.25" y="1" width="141.08" height="141.09"/><polygon class="cls-2" points="246.1 136.46 244.74 136.46 240.95 124.92 242.77 124.92 245.42 133.31 248.08 124.92 249.92 124.92 246.1 136.46"/><path class="cls-2" d="M255.57,132.83h-1.92c-1,0-1.48.43-1.48,1.18s.47,1.16,1.51,1.16a2,2,0,0,0,1.54-.46,1.7,1.7,0,0,0,.35-1.22Zm0,3.63v-.75a2.67,2.67,0,0,1-2.18.84,2.9,2.9,0,0,1-2.2-.74,2.49,2.49,0,0,1-.65-1.77c0-1.37,1-2.36,2.83-2.36h2.17v-.59c0-1-.51-1.54-1.79-1.54a1.91,1.91,0,0,0-1.8.8l-1.09-1a3.37,3.37,0,0,1,3-1.19c2.26,0,3.39,1,3.39,2.82v5.5Z"/><path class="cls-2" d="M262.46,136.46a2.1,2.1,0,0,1-2.26-2.27v-9.26h1.65v9.16c0,.63.23,1,.9,1h.72v1.41Z"/><path class="cls-2" d="M268,136.46a2.1,2.1,0,0,1-2.25-2.27v-9.26h1.65v9.16c0,.63.23,1,.89,1H269v1.41Z"/><path class="cls-2" d="M275.6,130.56a1.8,1.8,0,0,0-3.25,0,2.7,2.7,0,0,0-.21,1.12h3.69a2.69,2.69,0,0,0-.23-1.12m-3.46,2.27a2,2,0,0,0,2.08,2.3,2.46,2.46,0,0,0,2-.84l1,1a3.88,3.88,0,0,1-3.08,1.27c-2.05,0-3.69-1.09-3.69-4.21,0-2.65,1.38-4.2,3.48-4.2s3.48,1.62,3.48,4v.73Z"/><path class="cls-2" d="M287.52,129.63c-1.49,0-1.72,1.25-1.72,2.71s.23,2.74,1.72,2.74,1.7-1.28,1.7-2.74-.21-2.71-1.7-2.71m1.73,6.83v-.88a2.54,2.54,0,0,1-2.17,1,2.8,2.8,0,0,1-2-.73c-.83-.83-.92-2.23-.92-3.48s.09-2.64.92-3.46a2.76,2.76,0,0,1,2-.74,2.55,2.55,0,0,1,2.15.93v-4.14h1.65v11.53Z"/><path class="cls-2" d="M298.66,130.56a1.69,1.69,0,0,0-1.62-1,1.72,1.72,0,0,0-1.63,1,2.54,2.54,0,0,0-.22,1.12h3.7a2.69,2.69,0,0,0-.23-1.12m-3.47,2.27a2,2,0,0,0,2.09,2.3,2.43,2.43,0,0,0,2-.84l1.06,1a3.88,3.88,0,0,1-3.08,1.27c-2.06,0-3.69-1.09-3.69-4.21,0-2.65,1.38-4.2,3.48-4.2s3.48,1.62,3.48,4v.73Z"/><path class="cls-2" d="M311.37,127.53l-1.79,5.12h3.54Zm3,8.93-.8-2.32h-4.55l-.79,2.32H306.4l4.22-11.53H312l4.23,11.53Z"/><path class="cls-2" d="M321.59,129.62c-1.49,0-1.72,1.26-1.72,2.72s.23,2.74,1.72,2.74,1.7-1.28,1.7-2.74-.22-2.72-1.7-2.72m2.43,6.2a2.88,2.88,0,0,1-2,.73,2.52,2.52,0,0,1-2.17-1v.88h-1.63V124.92h1.66v4.15a2.53,2.53,0,0,1,2.15-.93,2.8,2.8,0,0,1,2,.74c.82.82.92,2.21.92,3.46a5,5,0,0,1-.92,3.48"/><path class="cls-2" d="M332.62,136.46v-.83a3,3,0,0,1-2.19.92,2.85,2.85,0,0,1-2-.74,3,3,0,0,1-.82-2.32v-5.24h1.65v5a1.59,1.59,0,0,0,1.65,1.83,1.64,1.64,0,0,0,1.7-1.83v-5h1.65v8.21Z"/><path class="cls-2" d="M341.86,130.17a1.53,1.53,0,0,0-1.23-.55,1.68,1.68,0,0,0-1.63,1.84v5h-1.66v-8.21H339v.88a2.74,2.74,0,0,1,2.18-1,2.55,2.55,0,0,1,2,.78Z"/><path class="cls-2" d="M349.45,130.17a1.52,1.52,0,0,0-1.23-.55,1.68,1.68,0,0,0-1.63,1.84v5h-1.65v-8.21h1.61v.88a2.75,2.75,0,0,1,2.19-1,2.58,2.58,0,0,1,2,.78Z"/><path class="cls-2" d="M355.62,126.76h-1.25l1.22-2.63h1.83Zm1.14,6.07h-1.93c-1,0-1.48.43-1.48,1.18s.47,1.16,1.51,1.16a2,2,0,0,0,1.54-.46,1.69,1.69,0,0,0,.36-1.22Zm0,3.63v-.75a2.72,2.72,0,0,1-2.19.84,2.9,2.9,0,0,1-2.2-.74,2.54,2.54,0,0,1-.65-1.77c0-1.37.95-2.36,2.83-2.36h2.18v-.59c0-1-.52-1.54-1.8-1.54a1.92,1.92,0,0,0-1.8.8l-1.08-1a3.35,3.35,0,0,1,2.95-1.19c2.24,0,3.38,1,3.38,2.82v5.5Z"/><polygon class="cls-2" points="248.94 122 248.94 115.42 246.78 119.7 245.29 119.7 243.11 115.42 243.11 122 240.9 122 240.9 110.7 243.08 110.7 246.03 116.81 248.97 110.7 251.15 110.7 251.15 122 248.94 122"/><polygon class="cls-2" points="253.23 122 253.23 110.7 260.68 110.7 260.68 112.66 255.44 112.66 255.44 115.32 259.9 115.32 259.9 117.29 255.44 117.29 255.44 120.03 260.68 120.03 260.68 122 253.23 122"/><polygon class="cls-2" points="266.58 112.66 266.58 122 264.37 122 264.37 112.66 261.41 112.66 261.41 110.7 269.53 110.7 269.53 112.66 266.58 112.66"/><path class="cls-2" d="M275,112.66H273v3H275a1.5,1.5,0,1,0,0-3m1.71,9.34-2.2-4.51H273V122h-2.21V110.7h4.43a3.41,3.41,0,0,1,3.67,3.45,3,3,0,0,1-2.07,3L279.3,122Z"/><path class="cls-2" d="M285.79,113.18a2,2,0,0,0-2.85,0c-.43.47-.54,1-.54,3.17s.11,2.7.54,3.18a2,2,0,0,0,2.85,0c.42-.48.55-1,.55-3.18s-.13-2.7-.55-3.17m1.63,7.69a4.1,4.1,0,0,1-3.05,1.23,4.15,4.15,0,0,1-3.07-1.23c-1.14-1.15-1.11-2.57-1.11-4.52s0-3.37,1.11-4.51a4.12,4.12,0,0,1,3.07-1.24,4.07,4.07,0,0,1,3.05,1.24c1.14,1.14,1.13,2.55,1.13,4.51s0,3.37-1.13,4.52"/><path class="cls-2" d="M294.52,112.66h-2.06v3.1h2.06a1.55,1.55,0,1,0,0-3.1m.11,5.09h-2.17V122h-2.21V110.69h4.38a3.54,3.54,0,1,1,0,7.06"/><path class="cls-2" d="M304.88,113.18a1.79,1.79,0,0,0-1.41-.61,1.84,1.84,0,0,0-1.44.61c-.42.47-.53,1-.53,3.17s.11,2.7.53,3.18a1.91,1.91,0,0,0,1.44.61,1.86,1.86,0,0,0,1.41-.61c.43-.48.56-1,.56-3.18s-.13-2.7-.56-3.17m1.64,7.69a4.42,4.42,0,0,1-6.12,0c-1.14-1.15-1.11-2.57-1.11-4.52s0-3.37,1.11-4.51a4.4,4.4,0,0,1,6.12,0c1.14,1.14,1.12,2.55,1.12,4.51s0,3.37-1.12,4.52"/><polygon class="cls-2" points="309.28 122 309.28 110.7 311.49 110.7 311.49 120.03 316.62 120.03 316.62 122 309.28 122"/><rect class="cls-3" x="317.83" y="110.7" width="2.21" height="11.31"/><polygon class="cls-2" points="326.43 112.66 326.43 122 324.22 122 324.22 112.66 321.27 112.66 321.27 110.7 329.39 110.7 329.39 112.66 326.43 112.66"/><path class="cls-2" d="M333.45,114l-1.43,4.1h2.81Zm2.63,8-.66-2h-4l-.69,2h-2.3l4.12-11.3h1.73l4.13,11.3Z"/><polygon class="cls-2" points="345.91 122 341.43 115.07 341.43 122 339.22 122 339.22 110.7 341.18 110.7 345.67 117.62 345.67 110.7 347.88 110.7 347.88 122 345.91 122"/><path class="cls-2" d="M353.72,114l-1.43,4.1h2.82Zm2.64,8-.67-2h-4l-.69,2h-2.3l4.11-11.3h1.73l4.13,11.3Z"/><path class="cls-2" d="M278.34,89.55l.18-.06.35-.37.63-.17.49-.21.51-1,.26.22.28-.68.53-.38.68-.45.49-.93,1-1,1.1-.84.13-.61.45,0,.15-.12.07-.31.66-.14.15-.71.39.23.5-1,.65-.94.23-1.14.74-.73.37-2.68,1.06-2.16.45-.65.85-.44,1.54.45.37.55.68.29.94-.89,1.22-.07.15-.09.06-.31,1.7-.08h1.48l.78.61.45.83.34.54.38.36-.38,1.91v1.33l-.82,1.21-.05.89L299.81,81l-.25,1.92-.46,0-.18.28-.59,1.94.77,1.41,1.44-.46,1.26-.24L303,84.41l1.67-.91,1.44-2.68.44-2.79.93-1.75.57-1.68.58-1.21.43-.71.6-.75.57-1,.63-.19.24-.4.84-.43.87-.59.62-.07.46,0,1.28.3.41.37.66.45.2.5.15-.11v.74l.5.55-.18.88.31.66-.14,1.64-.71,1.05-.14.72-.66.94-.05.17-.11,0h-.18l-.57.64-.5,1-.31.2-.22.26-.58.38-.47.32-.69.45-.62.59-.16.17-.16.13-.1.43.09.3,1.68-.1,1.67-.1.81-.28.4-.54.61.13.32-.08.06-.28.77-.17.79-.16,1.13-1.07,1.07-.86.15-.25.17-.15.24-.21.82-.93.46-.94,1.08-.71.66-1.07.73-.59.61-.78.43-.67.54-.49.55-.52.55-.46.53-1.12.5-.93.69-.34.48-.2.62-.88.79-.92.76-.76.77-.35.39-.17-.08-.33,1.86.38,1.21-.65.06-.28,1.44.3.61.73-.15.71.33.53.09.46.39.25-.47,2.3-.3-.07-.15.13.12,0,.27.21-.82,1-.33,1.6-.19,1.8.63,1.31-.17.1,1.77.65,0,0h0l-.26,0,0,.15.25,0,.22,0,0-.15,2.85-1,.91-.27,1.85-.4.89-.34h.75l1-.26.84-.4,1.55-.35,1.36-.47.9-.51,1.1-.14.51-.18.42-.3h.54l1.18-.7h.62l.16,0,.84-.3.49-.31.44.09-.15.11,0,.09.1.19.63-.39.06.36.29.23.28-.21-.07-.28-.11-.13L359,71.3l.29-.34.22,0,.46,0,.26-.3.16.38.43.22.45-.7,0,0,1.18-.6.3,0h.28l.48-.15.41-.53,0,.07.14.33.31.17.12-.09.06-.35-.23-.05-.2,0,.41-.43.25-.19.13-.09,0,.49,0,.2,0,.2.58,0,.5-.37,0,0,.18-.09h.47l0,.25,0,.1H367l.24.61.05.17v1l0-.07h0l0,.11.07.09-.13.75h-.24l-.52.26-.14.23,0,.26-.59-.24-.16-.07,0-.38-.2-.14-.54.36-.2.23-.2.22-.11,0h-.11l0-.16-.19-.25-.21,0-.17.33-.07.46-.08,0-.77-.26-.33.31-.22.2-1.28.52-.19.06-.61.56-.09-.26-.31-.18-.3.42-.08.47-.53-.11-.37.19-.06.37-.54-.22-.13-.56,0-.21-.07-.28-.45.66-.06.36-.06.36-.31-.17,0-.07-.65.19-.09.43h-.77l-.52.34-.81.1-.89.16-.73.58-1.68.59-1.18.12-1.17,1-1.59-.34-1.39.16-.9.37-.85.16-.65.42-1.24.25-.73.18-2.67,1.27L335,80.47l-.23-.36-.19.15-.12,0,0-.18.14-.1-.54-.24-.74-.14-.2.46-.28.28-.24.36-.35.49-.38.27-.43.35-.41.37-.19.4-.39.06-.58.64-.51.33-.3-.06-.22,0h-.11l-.06.32-.71-.15-.34.25-.06.28-1.52-.6L324.52,83l-.46-.53-.51-.54-.25-.24-.48.09-.51.33-.4.49-.51.21-.68.49,0,.12.12,0-.81.29-.86.6-1.3.49-1.22.78-1.11.25-1.1.21-1.33.62-1.3.49-.8.31-.92,0-.16,0-1.24.3-1.44-.29-.5-.59-.85-.29-1.07.84-1.06.83-.29.52-.59.19-1.77,1-1.57,1.2-.49.2,0,.28-.71-.14-.51.2-.05.26-1.44-.29-.76-.73-1.12-.52-.76-.6-.17-1.41V87.1l-.14-.46,0-.24,0-.22.22-.12v-.21l0-.23h.21l0-.24v-.14h.11l.16-.58.16-.25.06-.23.13,0,.2-.28-.24-.32.18-.12.18-.12-.09-1.1.23-1.14.85-1.2.27-1.27-.26-.23-.42-.08-.88.58-.74.59L293,80.56l-.63.9-.82,1-.51,1-.78,1-.63.76-.06.28-.75.78-.21,1-.68.3-.55.48-.3.86-.73.45-.18.24-.32.12-.58.74-.49.82-.73.32-.48.77-.9.43-.68.74-1.07.36-.38.28-1,.29-.75.17-1.33.61-1.88.61-1,.14-.46.21.07-.15-.12.08-.3-.2-1,0-.5-.75-.08-.9.26-1.54,0-1,.32-.75.23-.69.12-1.49.26-.49L274,87l.12-1.46.6-1.33V82.71l.57-1v-.15l-.12-.16v.16h-.3v-.16l.42-1,.61-.86V78.12l.29-1,.26-1,.17-1,.62-1.21V72.36l.44-.86V70.15l.41-.29.17-.57V67.81l.27-.16.18-.31.12-1.3.62-1.05V63.36l.28.15.17-.15-.17-.43.28-1.06.46-.85.27-2,.31-1.91.6-1,.15-1.31h.3l.29-1.78.44-1V50.83l.6-1,.43-1.2.15-1.33-.28-1-.47.44v.88l-.72.28-.44.6-.3.88-.31.58-.58.62-.44.56L280,52l-.43.86-.59.75-.46.9-.57.42-.45.43-.74,1.19-.58,1.51h-.29l-.17.27v.3l-.74.59-.44.86v.32L274,61l-.63.73v.56l-.58.17-.14.57.14.17-.57.6-.61.87-.31.62-.41.44-.45.41-.16.75h.16l-.48.16-.25.27-.7.81-.35.39-.73,1.32h0l-.65.66-.07.06-.39,1-.08.21-.41.45-.08.06-.36.38L266,73l-.13.29-.43.32-.18.43-.88.74-.71.58-.17.75-.44.27-.15.74v.63l.88.11.91-.43-.19-.14h1.36l.36-.21.57-.35.09,0,.37.26.52.35h.75l.26.14.23.13.08,0-.08-.48,0-.27,0-.12.23-.62v.45l.16.44.31.12h.25l.19-.74.58-.14v.14h-.14l.14.18H271l-.13,1.76-.45.44-.48.14-.12.29v.32l.44.14.16.28h-1.78l-.76.5-.57.42-.08.2-.07.23-.3.44h-.44v-.15l-.14-.16-.08.06-.36.25-.43.13-.32.61-.14-.15h-.28v-.59l-.32-.31-.44.44-.44.46-.89.15-.44.58-.14-.15-.15-.14-.46-.14-.45,1.16-.57.22-.29-.06-1.05.3-.59.4.09.22-.83.19h0l-2.39.94-.1.47-.14.58-.21.1-.22.08-.12-.28-.6-.17-.41.17,0,.74.34.82-.13.06-1.67.47-.27.87-.19.58-1.74,2.3-.26.33-.51,1.6-.45-.32-.72.06-.11,1,.36.84-1.06.43-.48.74.27.65-1.17.27-.81-.75-.17-.39-.4-.36-.13,1.58.53,1.29-.72.09-.64-.27-1,1.18L241.9,102,240,103l.28.67-1,.67-.38.91-1,.86-1,1-.46,1.42-1.68,2.29-1.48,1.21-.64,2.4-2.4,1-2.95,2.18-1,0v-3.5l.49-2.25-.49.33,1-.66,1.07-1.23.76-1.29,1.76-1.85,1.37-1.84.75-1.5,1.33-1.16.62-.86.86-1,1-2,2-1.29.14-.88.5-.71,1-1.18,1.19-1.47.56-1.06.86-.36-.15.35.08.18.36.19.72-1.37.48.53.76,0,.26-.65-.4-.36-.32-.09-.64.27.16-.89.22-.1-.29,0-3.12,1.23h-.28l-.15.25-.72-.12-.44-.75h-.6l-.31.31.31.31-.74.13h-.87L236.6,90l-.48-1.49-1-.58.14-1.44,2.5-2.51,1.93-.16,4.29-1.2,2.22-.15,2.05-.61,1-.28,1.2-.72h1.05l.07-.34.26-.61.12-.3.57.77,0,.06.1-.06,1.31-.27-.69-.45.6-.79.27-.57.63-.27.11-.62.18.15.28-.59.15-.44.9-1.16,1.19-.91.28-.45v-.72l.44-.29,1.59-1-.29-.12.87-.89.57-.9.32-.43.14-.74.15-.13.7-.53.75-.87.72-1.06.87-.85.32-.31-.32-.16.19-.27H265l.78-.57L265.63,63l.06,0,.5-.39.08-.17.39-.75.07,0,.51-.39.15-.64,0-.09.44-.3.28-.31.36-.57.39-.62.56-1,.18-.3h.29l.15-.12v-.46l.58-.72v-.48l.44-.13V55L273,52.94l1.34-2.53.6-.43.43-.6.73-1.18.62-1.34.72-.73.29-1,1.37-.32.31-1,.08-.84.45-.59.44-.88.32-.75.43-.43.14-.61.31.17.44-1,.72-.92.6-.84,1.11-.51-.19-.31.31-.14.13-.48.71-.7.32-.89.43-.32-.43-.72.73-.4.44-1.06.42-1,.75-.87.59-.87.32-1.34.91-.91.75-1.15.12-.75.31-1.06,1-.58,1,.43h1.18v1.21l.72.56v.46l.31.14-.43,3-.6,3.25-.44.31-.16.57v.86l-.58.32-.17.89.17.46h-.31l-.29.43v.87l-.44.62v2.06l-.6,1-.74,1-.12.89-.46.89v1.49l-.59,1v1.63l-.61.9-.44.91-.12.55v1L287.8,52v1.9l-.42.73-.3,1-.44,1.16-.6,1.35.12,1.34-.43,1-.13,1.18-.43,1.18H285l-.44,1.9-.31,2.08-.29.16-.28.27.13,1.46L283.39,70l-.31.73.14.75-.57.29v1.46l-.46.43-.13,1.79-.61,1.34V78l-.58.75-.17.75v.72h-.13l-.14.14.27.16-.42.88-.12,1-.62,1.77-.07,1.17ZM266,77.82v.46h.45l-.14-.46H266ZM294.49,19l-.63.45.18.05.25-.07.14.1.53.22-.09.17.06.24.82.56.1-.07H296l0,0,.06,0,.14-.19-.29-.27.09-.06.17-.06.27.1.23.14-.23-.25-.05,0-.16-.08-.23-.12h0l.14,0,.17,0,.27-.19.36,0,.26,0v0l0-.26,0-.16.49-.35h-.13l.11-.38.37-.19.35-.73.9-.82.3-.73.48-.72.33-.42.09-.37.48-.35.07-.53.24-.35.42-.71.73-.63.39-.66.62-.56-.34-1.39-.64-.48-.65.09-.91-.33-.91-.2-.32.22-.21.23.27,0,0,.17-.2.17L299.06,9l-.32.16.07.11-.11.08,0,.37-.36.36.14.07-.1.08-.44,0L297.8,10l-.49,1.4a5.21,5.21,0,0,1-1.26,1.93l-.07.3.13.2.08.35-.3.18-.17.4v.39l-.35.1-.1.15.28.58-.24.08H295l.15.29-.25.27.07.27,0,.23h-.26l-.21-.06-.1.07h-.13l.19.27,0,.29.55.36v0l-.12,0-.09,0h-.59l.1.21.11.1.49.17v.29ZM366.07,70.9l0-.24-.18.06h0l-.17.22.17,0H366Zm-.8-.54.06-.38-.32-.06-.08.06-.19.15-.1-.08-.1-.09.08.21.08.21.16,0,.29.06Zm-.87,1.82,0-.11-.1,0h0l-.09-.15,0,.24.11,0Zm-.46-2.08.05-.25-.06-.08,0-.08-.06.39h.09Zm-2.77,1.79.11,0-.07-.25-.06,0-.15-.12.05.54,0-.06ZM248.61,89.34l.22-.09-.4-.33h-.55l.65.79v-.15Zm48.08-70.47h0l.22.13-.12.08-.27-.09Zm-1.41-.47h0l0-.08.21.13-.16.12-.11-.13Zm-.17.84h0l.21.12-.18.13-.65-.24Zm37.72,56.08.85-1.52,0-1.72L333,70.76l-1.55,1.31-1,1.23-.54.9-.86.9-.81,1.4-.34,1.44,0,.69.46.29h.24l.17.28.49-.21.57-.27.05,0,.51-1,1-.39.15-.72.42-.51.12-.25.17-.13Zm-21.1,1.86.37-.48.38-.18.75-.92.46-.77.21-1-.47-.66-.9.36-.95,1L311,75.87l-.34,1,0,.92.94-.32Zm-45.18,3v.43l.2-.08.09-.05.15-.3h-.44Zm.44-.42v.12h.47v-.12H267Zm1.75-.75v.45h.46V79h-.46Zm-6.62-1.31v-.46h-.29v.31l.15.07Z"/><rect class="cls-1" x="3.04" y="151.83" width="364.18" height="19.17"/><path class="cls-3" d="M14.61,161.6a4,4,0,0,1-1.12-1,1.77,1.77,0,0,1-.26-1,1.37,1.37,0,0,1,.35-.94,1.19,1.19,0,0,1,.91-.38,2.81,2.81,0,0,1,1.42.42.15.15,0,0,0,.17,0,.19.19,0,0,0,.09-.15v-1a.15.15,0,0,0-.1-.15,3.64,3.64,0,0,0-1.61-.33,2.58,2.58,0,0,0-1.9.75,2.69,2.69,0,0,0-.72,1.94,2.76,2.76,0,0,0,.44,1.55,5.1,5.1,0,0,0,1.4,1.3,4.55,4.55,0,0,1,1.17,1,1.78,1.78,0,0,1,.25.94,1.34,1.34,0,0,1-.34,1,1.24,1.24,0,0,1-1,.35,2.69,2.69,0,0,1-1.67-.68.15.15,0,0,0-.18,0,.16.16,0,0,0-.1.15v1.12a.19.19,0,0,0,.07.14,3.26,3.26,0,0,0,1.89.54,2.59,2.59,0,0,0,2-.76,2.73,2.73,0,0,0,.69-1.93,2.89,2.89,0,0,0-.42-1.53,4.93,4.93,0,0,0-1.47-1.37"/><rect class="cls-3" x="25.48" y="157.26" width="1.34" height="9.76" rx="0.17"/><path class="cls-3" d="M38.66,161.6a3.9,3.9,0,0,1-1.11-1,1.68,1.68,0,0,1-.26-1,1.32,1.32,0,0,1,.35-.94,1.17,1.17,0,0,1,.9-.38,2.87,2.87,0,0,1,1.43.42.15.15,0,0,0,.17,0,.18.18,0,0,0,.08-.15v-1a.15.15,0,0,0-.09-.15,3.7,3.7,0,0,0-1.61-.33,2.56,2.56,0,0,0-1.9.75,2.69,2.69,0,0,0-.72,1.94,2.76,2.76,0,0,0,.43,1.55,5,5,0,0,0,1.41,1.3,4.46,4.46,0,0,1,1.16,1,1.7,1.7,0,0,1,.26.94,1.38,1.38,0,0,1-.34,1,1.27,1.27,0,0,1-1,.35,2.73,2.73,0,0,1-1.68-.68.15.15,0,0,0-.18,0,.16.16,0,0,0-.09.15v1.12a.16.16,0,0,0,.07.14,3.22,3.22,0,0,0,1.89.54,2.57,2.57,0,0,0,2-.76,2.74,2.74,0,0,0,.7-1.93,2.81,2.81,0,0,0-.43-1.53,4.81,4.81,0,0,0-1.47-1.37"/><path class="cls-3" d="M48.58,157.26a.18.18,0,0,0-.17.17v.89a.17.17,0,0,0,.17.17h1.91v8.36a.17.17,0,0,0,.17.17h1a.16.16,0,0,0,.16-.17v-8.36h1.92a.17.17,0,0,0,.17-.17v-.89a.18.18,0,0,0-.17-.17Z"/><path class="cls-3" d="M63.94,165.8v-3.07H66.4a.17.17,0,0,0,.17-.17v-.88a.17.17,0,0,0-.17-.17H63.94v-3H66.6a.16.16,0,0,0,.17-.17v-.89a.17.17,0,0,0-.17-.17H62.76a.18.18,0,0,0-.17.17v9.43a.17.17,0,0,0,.17.16h4a.17.17,0,0,0,.17-.16V166a.17.17,0,0,0-.17-.17Z"/><path class="cls-3" d="M82.46,157.26a.17.17,0,0,0-.16.12l-2.18,6.76a3.89,3.89,0,0,0-.11.43c0-.13-.07-.26-.11-.38l-2.23-6.81a.18.18,0,0,0-.17-.12H76.23a.18.18,0,0,0-.17.17v9.42a.17.17,0,0,0,.17.17h.89a.17.17,0,0,0,.17-.17v-6.46l2.15,6.52a.18.18,0,0,0,.17.11h.71a.16.16,0,0,0,.16-.11l2.13-6.57v6.51a.17.17,0,0,0,.17.17h.92a.17.17,0,0,0,.17-.17v-9.42a.18.18,0,0,0-.17-.17Z"/><path class="cls-3" d="M96.39,157.26h-1.1a.16.16,0,0,0-.16.12l-2.78,9.43a.16.16,0,0,0,.16.21h1.08a.15.15,0,0,0,.16-.12l.73-2.6h2.67l.71,2.6A.16.16,0,0,0,98,167h1.09a.17.17,0,0,0,.14-.06.2.2,0,0,0,0-.15l-2.72-9.43a.17.17,0,0,0-.17-.12m-.6,2.15a.14.14,0,0,1,0-.06.64.64,0,0,0,0,.09l1,3.68H94.75Z"/><path class="cls-3" d="M120.83,157.26h-2.12a.17.17,0,0,0-.17.17v9.42a.17.17,0,0,0,.17.17h2.06a3.65,3.65,0,0,0,3-1.39,5.7,5.7,0,0,0,1.09-3.62,5.31,5.31,0,0,0-1-3.53,3.77,3.77,0,0,0-3-1.22m-.94,1.23h.91a2.31,2.31,0,0,1,2,.9,4.28,4.28,0,0,1,.71,2.64,4.61,4.61,0,0,1-.74,2.79,2.38,2.38,0,0,1-2,1h-.85Z"/><path class="cls-3" d="M135.26,165.8v-3.07h2.46a.16.16,0,0,0,.16-.17v-.88a.16.16,0,0,0-.16-.17h-2.46v-3h2.66a.17.17,0,0,0,.17-.17v-.89a.18.18,0,0,0-.17-.17h-3.84a.18.18,0,0,0-.17.17v9.43a.17.17,0,0,0,.17.16h4a.17.17,0,0,0,.17-.16V166a.17.17,0,0,0-.17-.17Z"/><path class="cls-3" d="M161.18,157.26h-1.1a.18.18,0,0,0-.17.12l-2.77,9.43a.14.14,0,0,0,0,.15.16.16,0,0,0,.13.06h1.08a.15.15,0,0,0,.16-.12l.73-2.6h2.67l.71,2.6a.16.16,0,0,0,.16.12h1.09A.17.17,0,0,0,164,167a.16.16,0,0,0,0-.15l-2.72-9.43a.16.16,0,0,0-.16-.12m-.61,2.15a.14.14,0,0,0,0-.06.46.46,0,0,0,0,.09l1,3.68h-2.08Z"/><path class="cls-3" d="M173.92,165.8v-8.37a.18.18,0,0,0-.17-.17h-1a.18.18,0,0,0-.17.17v9.43a.17.17,0,0,0,.17.16h3.91a.17.17,0,0,0,.17-.16V166a.17.17,0,0,0-.17-.17Z"/><path class="cls-3" d="M186.9,165.8v-3.07h2.46a.17.17,0,0,0,.17-.17v-.88a.17.17,0,0,0-.17-.17H186.9v-3h2.66a.17.17,0,0,0,.17-.17v-.89a.18.18,0,0,0-.17-.17h-3.84a.18.18,0,0,0-.17.17v9.43a.17.17,0,0,0,.17.16h4a.17.17,0,0,0,.17-.16V166a.17.17,0,0,0-.17-.17Z"/><path class="cls-3" d="M202.52,162.54a2.55,2.55,0,0,0,1.54-2.62,2.71,2.71,0,0,0-.69-1.94,2.57,2.57,0,0,0-2-.72h-2.23a.17.17,0,0,0-.17.17v9.42a.17.17,0,0,0,.17.17h1a.16.16,0,0,0,.17-.17V163h.52a.76.76,0,0,1,.56.24,3.41,3.41,0,0,1,.52,1.06l.91,2.61a.15.15,0,0,0,.15.11h1.15a.16.16,0,0,0,.14-.07.16.16,0,0,0,0-.15l-1.05-2.9a3.18,3.18,0,0,0-.76-1.36m-2.16-4.06h.86a1.39,1.39,0,0,1,1.07.4,1.7,1.7,0,0,1,.38,1.19,1.84,1.84,0,0,1-.41,1.24,1.3,1.3,0,0,1-1,.46h-.86Z"/><path class="cls-3" d="M212.44,157.26a.18.18,0,0,0-.17.17v.89a.17.17,0,0,0,.17.17h1.92v8.36a.16.16,0,0,0,.17.17h1a.17.17,0,0,0,.17-.17v-8.36h1.91a.16.16,0,0,0,.17-.17v-.89a.17.17,0,0,0-.17-.17Z"/><path class="cls-3" d="M228.62,157.26h-1.1a.16.16,0,0,0-.16.12l-2.78,9.43a.16.16,0,0,0,.16.21h1.08a.15.15,0,0,0,.16-.12l.73-2.6h2.67l.71,2.6a.16.16,0,0,0,.16.12h1.09a.17.17,0,0,0,.14-.06.2.2,0,0,0,0-.15l-2.72-9.43a.17.17,0,0,0-.17-.12m-.6,2.15a.14.14,0,0,1,0-.06.64.64,0,0,0,0,.09l1,3.68H227Z"/><path class="cls-3" d="M250.13,157.26a.18.18,0,0,0-.17.17v.89a.17.17,0,0,0,.17.17h1.92v8.36a.17.17,0,0,0,.17.17h1a.17.17,0,0,0,.17-.17v-8.36h1.91a.16.16,0,0,0,.17-.17v-.89a.17.17,0,0,0-.17-.17Z"/><path class="cls-3" d="M265.5,165.8v-3.07H268a.16.16,0,0,0,.16-.17v-.88a.16.16,0,0,0-.16-.17H265.5v-3h2.66a.17.17,0,0,0,.17-.17v-.89a.18.18,0,0,0-.17-.17h-3.84a.18.18,0,0,0-.17.17v9.43a.17.17,0,0,0,.17.16h4a.17.17,0,0,0,.17-.16V166a.17.17,0,0,0-.17-.17Z"/><path class="cls-3" d="M284,157.26a.17.17,0,0,0-.16.12l-2.19,6.76c0,.15-.07.29-.1.43,0-.13-.08-.26-.11-.38l-2.23-6.81a.18.18,0,0,0-.17-.12h-1.27a.17.17,0,0,0-.17.17v9.42a.16.16,0,0,0,.17.17h.89a.17.17,0,0,0,.17-.17v-6.46l2.15,6.52a.18.18,0,0,0,.17.11h.71a.17.17,0,0,0,.16-.11l2.13-6.57v6.51a.17.17,0,0,0,.17.17h.91a.16.16,0,0,0,.17-.17v-9.42a.17.17,0,0,0-.17-.17Z"/><path class="cls-3" d="M297.22,157.26h-2.15a.17.17,0,0,0-.17.17v9.42a.17.17,0,0,0,.17.17h1a.16.16,0,0,0,.17-.17v-3.38H297a2.66,2.66,0,0,0,2.16-.94,3.52,3.52,0,0,0,.78-2.32,3.11,3.11,0,0,0-.72-2.18,2.66,2.66,0,0,0-2-.77m-1,1.23h.82c1,0,1.52.58,1.52,1.81a2.24,2.24,0,0,1-.43,1.43,1.43,1.43,0,0,1-1.18.5h-.73Z"/><path class="cls-3" d="M312.34,162.54a2.55,2.55,0,0,0,1.54-2.62,2.71,2.71,0,0,0-.69-1.94,2.55,2.55,0,0,0-1.94-.72H309a.17.17,0,0,0-.17.17v9.42a.17.17,0,0,0,.17.17h1a.17.17,0,0,0,.17-.17V163h.52a.75.75,0,0,1,.55.24,3.38,3.38,0,0,1,.53,1.06l.9,2.61a.16.16,0,0,0,.16.11H314a.15.15,0,0,0,.14-.07.16.16,0,0,0,0-.15l-1-2.9a3.07,3.07,0,0,0-.76-1.36m-2.15-4.06H311a1.39,1.39,0,0,1,1.07.4,1.65,1.65,0,0,1,.38,1.19,1.79,1.79,0,0,1-.41,1.24,1.3,1.3,0,0,1-1,.46h-.85Z"/><path class="cls-3" d="M326.15,157.26H325a.16.16,0,0,0-.16.12l-2.78,9.43a.2.2,0,0,0,0,.15.18.18,0,0,0,.14.06h1.07a.16.16,0,0,0,.17-.12l.72-2.6h2.67l.71,2.6a.16.16,0,0,0,.17.12h1.09A.2.2,0,0,0,329,167a.16.16,0,0,0,0-.15l-2.72-9.43a.17.17,0,0,0-.16-.12m-.61,2.15a.14.14,0,0,1,0-.06.51.51,0,0,1,0,.09l1,3.68h-2.07Z"/><path class="cls-3" d="M342.66,157.26a.18.18,0,0,0-.17.17v7l0,0-3.45-7a.18.18,0,0,0-.15-.1h-1.16a.18.18,0,0,0-.17.17v9.42a.17.17,0,0,0,.17.17h.9a.17.17,0,0,0,.17-.17v-7l0,.06,3.5,7a.16.16,0,0,0,.15.09h1.12a.17.17,0,0,0,.17-.17v-9.42a.18.18,0,0,0-.17-.17Z"/><path class="cls-3" d="M356.45,157.38a.17.17,0,0,0-.16-.12h-1.11a.16.16,0,0,0-.16.12l-2.77,9.43a.16.16,0,0,0,0,.15.18.18,0,0,0,.14.06h1.07a.16.16,0,0,0,.17-.12l.72-2.6H357l.71,2.6a.16.16,0,0,0,.17.12H359a.2.2,0,0,0,.14-.06.16.16,0,0,0,0-.15Zm-.77,2,0-.06a.51.51,0,0,1,0,.09l1,3.68h-2.07Z"/><path class="cls-1" d="M71.19,23.75a3.54,3.54,0,0,1-1.69,3.79l-.08.05a3.73,3.73,0,0,1-1,.36h-.12a2,2,0,0,1-.43,0,3.71,3.71,0,0,1-3.66-3L60.37,5.37A3.59,3.59,0,0,1,61,2.57a3.31,3.31,0,0,1,2.31-1.41,1.74,1.74,0,0,1,.44,0,3.71,3.71,0,0,1,3.67,3l3.79,19.6M43.25,36.51,26.43,22.16A3.81,3.81,0,1,0,21.49,28L38.31,42.33a3.89,3.89,0,0,0,2.52.9,3.61,3.61,0,0,0,1.84-.5,4,4,0,0,0,1-.78l.07-.06a3.85,3.85,0,0,0-.46-5.38m-13.71,37a4,4,0,0,0,1.82-.5,3.85,3.85,0,0,0,1.91-3.42,4,4,0,0,0-3.83-4l-22.83-.8A3.7,3.7,0,0,0,3.75,66,4,4,0,0,0,6.5,72.68l22.87.81ZM40.71,97.17a3.92,3.92,0,0,0-2.4.88L21,112.51a3.91,3.91,0,0,0,2.58,6.89,4,4,0,0,0,1.79-.47,4.54,4.54,0,0,0,.59-.41L43.3,104.06a3.92,3.92,0,0,0-2.59-6.89m27.52,14.44a2.72,2.72,0,0,0-.7-.06,3.7,3.7,0,0,0-3.58,3l-3.64,19.77a3.71,3.71,0,0,0,2.93,4.31h.09a3.18,3.18,0,0,0,.62,0,3.72,3.72,0,0,0,1.76-.47,3.68,3.68,0,0,0,1.83-2.55l3.63-19.76a3.66,3.66,0,0,0-2.94-4.31"/><path class="cls-1" d="M75.05,40.54A27.86,27.86,0,0,0,55.4,49,27.45,27.45,0,0,0,47.8,69,29.18,29.18,0,0,0,77.18,97.14a29.56,29.56,0,0,0,5.47-.61,4.41,4.41,0,0,1,4.08,7.39,4.27,4.27,0,0,1-2.3,1.25,36.83,36.83,0,0,1-7.14.8A37.68,37.68,0,0,1,50.64,95.4C35.71,81.08,35,57.5,49,42.86a36.65,36.65,0,0,1,25.9-11.14,37.57,37.57,0,0,1,9.56,1.1,4.42,4.42,0,0,1-1,8.7,3.82,3.82,0,0,1-1.11-.12,28.71,28.71,0,0,0-7.31-.86m87.4-5.43a31.67,31.67,0,0,0-6.06.66C148.73,19,132,8.11,114,8.35l0,2.55.06,3.84,0,2.55c15.82-.21,30.16,10,35.69,25.34l1.45,4,4-1.36A23.88,23.88,0,0,1,162.56,44C176,43.86,187,55,187.2,68.82s-10.56,25.24-23.95,25.42l-9.28.13a4.47,4.47,0,0,0,.11,8.93l9.29-.13c18.16-.24,32.72-15.71,32.47-34.47s-15.23-33.85-33.39-33.59"/><path class="cls-1" d="M79.78,66.71c-3-1-6.25-2.21-6.28-4.61,0-2.67,2.83-3.92,5.5-4a8.23,8.23,0,0,1,4.82,1.59,2.12,2.12,0,0,0,1.23.42,1.9,1.9,0,0,0,1.89-1.87,2,2,0,0,0-.82-1.53,11.5,11.5,0,0,0-7.28-2.39c-4.47.07-9.17,2.79-9.1,7.72s4.77,6.94,8.31,8.1c3.73,1.19,6.59,2.3,6.61,4.78s-3,3.63-6,3.68a9.75,9.75,0,0,1-5.41-1.46,2.22,2.22,0,0,0-1.37-.44,1.83,1.83,0,0,0-1.83,1.87A2,2,0,0,0,71,80.22a14.89,14.89,0,0,0,7.72,2.19c4.73-.07,9.78-2.46,9.71-7.55-.08-5.36-5.24-7-8.66-8.15"/><path class="cls-1" d="M94.41,54.35a1.91,1.91,0,0,0-1.87,1.91l.32,23.88a1.9,1.9,0,0,0,3.79,0L96.32,56.2a1.88,1.88,0,0,0-1.91-1.85"/><path class="cls-1" d="M140.3,55.61a1.89,1.89,0,0,0-2-1.85L121,54a1.88,1.88,0,1,0,0,3.76l6.82-.09.29,22a1.9,1.9,0,0,0,1.9,1.89,1.93,1.93,0,0,0,1.86-1.94l-.28-22,6.76-.09a1.9,1.9,0,0,0,1.9-1.91"/><path class="cls-1" d="M123.56,80.37l0-.11-.93-2.4,0,0v0L113.78,55.3a2.17,2.17,0,0,0-4.06,0l-3.39,9.44-.54,1.53-5.08,14.26h0l0,.11c0,.2,0,.62.58,1a2.35,2.35,0,0,0,1,.21,3.38,3.38,0,0,0,2.9-2.36l1.76-5,10.23-.14,1.91,5a3.34,3.34,0,0,0,3,2.26,2.25,2.25,0,0,0,1.15-.33h0l0,0a.85.85,0,0,0,.37-.88m-15.39-9.6,3.38-9.2.27-.93.32,1,3.59,9Z"/><path class="cls-1" d="M159.44,79.89l-.05-.11-.93-2.41-.06,0s0,0,0,0l-8.75-22.52a2.18,2.18,0,0,0-4.07,0l-3.37,9.44-.54,1.54-5.09,14.25-.05.12c0,.19,0,.62.58,1a2.43,2.43,0,0,0,1,.2A3.33,3.33,0,0,0,141,79.06l1.76-5L153,73.93l1.89,5a3.37,3.37,0,0,0,3,2.26,2.42,2.42,0,0,0,1.16-.32,0,0,0,0,1,0,0l0,0a.85.85,0,0,0,.36-.88m-15.38-9.61,3.36-9.19.28-.94.32,1,3.6,9.05Z"/></svg>