<?xml version="1.0" encoding="utf-8"?>
<!-- Generator: Adobe Illustrator 25.2.3, SVG Export Plug-In . SVG Version: 6.00 Build 0)  -->
<svg version="1.1" id="Capa_1" xmlns="http://www.w3.org/2000/svg" xmlns:xlink="http://www.w3.org/1999/xlink" x="0px" y="0px"
	 viewBox="0 0 50 50" style="enable-background:new 0 0 50 50;" xml:space="preserve">
<style type="text/css">
	.st0{fill:#89CDD8;}
</style>
<path class="st0" d="M32.2,11.2c0.3-0.3,0.9-0.3,1.3,0l0,0l5.2,5.2c0.3,0.3,0.3,0.9,0,1.3l0,0L21.2,35.2c0,0-0.2,0.2-0.3,0.2
	l-8.8,3.5c-0.5,0.2-0.9,0-1-0.5c0-0.2,0-0.5,0-0.7l3.5-8.8c0-0.2,0.2-0.2,0.2-0.3C14.7,28.7,32.2,11.2,32.2,11.2z M30.6,15.4l4,4
	l2.3-2.3l-4-4L30.6,15.4z M33.4,20.7l-4.1-4.1L18,28v0.5h0.9c0.5,0,0.9,0.3,0.9,0.9v0.9h0.9c0.5,0,0.9,0.3,0.9,0.9v1h0.5L33.4,20.7z
	 M16.2,29.7L16,29.9l-2.5,6.7l6.7-2.6l0.2-0.2c-0.3-0.2-0.5-0.5-0.5-0.9V32H19c-0.5,0-0.9-0.3-0.9-0.9v-0.9h-0.9
	C16.8,30.3,16.4,30.1,16.2,29.7z"/>
</svg>
