<?xml version="1.0" encoding="utf-8"?>
<!-- Generator: Adobe Illustrator 25.2.3, SVG Export Plug-In . SVG Version: 6.00 Build 0)  -->
<svg version="1.1" id="Capa_1" xmlns="http://www.w3.org/2000/svg" xmlns:xlink="http://www.w3.org/1999/xlink" x="0px" y="0px"
	 viewBox="0 0 50 50" style="enable-background:new 0 0 50 50;" xml:space="preserve">
<style type="text/css">
	.st0{fill:#89CDD8;}
</style>
<g>
	<path class="st0" d="M18.9,26.8c1.4,0,2.6-1.2,2.6-2.6s-1.2-2.6-2.6-2.6s-2.6,1.2-2.6,2.6S17.5,26.8,18.9,26.8z"/>
	<path class="st0" d="M35.5,33.8c0,1.9-1.6,3.5-3.5,3.5H14.5c-1.9,0-3.5-1.6-3.5-3.5v-14c0-1.9,1.6-3.5,3.5-3.5
		c0-1.9,1.6-3.5,3.5-3.5h17.5c1.9,0,3.5,1.6,3.5,3.5v14C39,32.2,37.4,33.8,35.5,33.8z M35.5,14.5H18c-1,0-1.8,0.7-1.8,1.8H32
		c1.9,0,3.5,1.6,3.5,3.5V32c1,0,1.8-0.7,1.8-1.8v-14C37.3,15.2,36.5,14.5,35.5,14.5z M14.5,18c-1.1,0-1.8,0.7-1.8,1.8v14l4.5-4.2
		c0.4-0.3,0.7-0.3,1.1-0.2l4.7,3.2l6.5-6.5c0.4-0.4,0.7-0.4,1.1-0.2l3.2,3.3v-9.5c0-1-0.7-1.8-1.8-1.8H14.5V18z"/>
</g>
</svg>
