<?xml version="1.0" encoding="utf-8"?>
<!-- Generator: Adobe Illustrator 25.2.3, SVG Export Plug-In . SVG Version: 6.00 Build 0)  -->
<svg version="1.1" id="Capa_1" xmlns="http://www.w3.org/2000/svg" xmlns:xlink="http://www.w3.org/1999/xlink" x="0px" y="0px"
	 viewBox="0 0 50 50" style="enable-background:new 0 0 50 50;" xml:space="preserve">
<style type="text/css">
	.st0{fill-rule:evenodd;clip-rule:evenodd;fill:#FFFFFF;}
	.st1{fill:#FFFFFF;}
</style>
<g>
	<path class="st0" d="M30.1,23.4c0.3,0.4,0.3,0.9,0,1.2l0,0L25,29.9c-0.4,0.3-0.9,0.3-1.2,0l0,0l-2.9-2.4c-0.4-0.4-0.4-0.9,0-1.2
		s0.9-0.4,1.2,0l1.9,1.9l4.6-4.6C29,23.3,29.8,23.3,30.1,23.4L30.1,23.4z"/>
	<path class="st1" d="M18,13.6h-1.8c-1.9,0-3.5,1.6-3.5,3.5v18.4c0,1.9,1.6,3.5,3.5,3.5h17.5c1.9,0,3.5-1.6,3.5-3.5V17.1
		c0-1.9-1.6-3.5-3.5-3.5H32v1.8h1.8c1,0,1.8,0.7,1.8,1.8v18.3c0,1-0.7,1.8-1.8,1.8H16.3c-1.1,0-1.8-0.8-1.8-1.8V17.1
		c0-1,0.7-1.8,1.8-1.8h1.8L18,13.6L18,13.6z"/>
	<path class="st1" d="M27.6,12.7c0.5,0,0.9,0.4,0.9,0.9v1.8c0,0.5-0.4,0.9-0.9,0.9h-5.2c-0.5,0-0.9-0.4-0.9-0.9v-1.8
		c0-0.5,0.4-0.9,0.9-0.9H27.6z M22.4,11c-1.4,0-2.6,1.2-2.6,2.6v1.8c0,1.4,1.2,2.6,2.6,2.6h5.2c1.4,0,2.6-1.2,2.6-2.6v-1.8
		c0-1.4-1.2-2.6-2.6-2.6H22.4z"/>
</g>
</svg>
