<?xml version="1.0" encoding="utf-8"?>
<!-- Generator: Adobe Illustrator 25.2.3, SVG Export Plug-In . SVG Version: 6.00 Build 0)  -->
<svg version="1.1" id="Capa_1" xmlns="http://www.w3.org/2000/svg" xmlns:xlink="http://www.w3.org/1999/xlink" x="0px" y="0px"
	 viewBox="0 0 50 50" style="enable-background:new 0 0 50 50;" xml:space="preserve">
<style type="text/css">
	.st0{fill:#FFFFFF;}
</style>
<g>
	<path class="st0" d="M23.1,24.1c3.6,0,6.6,3,6.6,6.6c0,0,0,0,0,0.2c0,0.6,0.4,0.9,0.9,0.9h0.2c1.5-0.4,3,0.6,3.4,2.1
		c0,0.2,0,0.4,0,0.7c0,1.5-1.3,2.8-2.8,2.8H15.6c-2.1,0-3.7-1.7-3.7-3.7c0-2.1,1.7-3.7,3.7-3.7h0.2c0.4,0,0.9-0.2,0.9-0.7
		C17.5,26.1,20.1,24.1,23.1,24.1z M31.6,29.7c-0.6-4.7-4.7-8.1-9.4-7.5c-3.2,0.4-6,2.6-7.1,5.6c-3,0.2-5.2,3-5.1,6
		c0.2,3,2.6,5.2,5.6,5.2h15.9c2.6,0,4.7-2.1,4.7-4.7C36.2,31.7,34.2,29.7,31.6,29.7L31.6,29.7z"/>
	<path class="st0" d="M29.7,11.9c0-0.6-0.4-0.9-0.9-0.9c-0.6,0-0.9,0.4-0.9,0.9v1.9c0,0.6,0.4,0.9,0.9,0.9c0.6,0,0.9-0.4,0.9-0.9
		V11.9z M36.6,15.6c0.4-0.4,0.4-0.9,0-1.3c-0.4-0.4-0.9-0.4-1.3,0l0,0L34,15.6c-0.4,0.4-0.4,0.9,0,1.3s0.9,0.4,1.3,0l0,0L36.6,15.6z
		 M22.2,14.3c-0.4-0.4-0.9-0.4-1.3,0s-0.4,0.9,0,1.3l1.3,1.3c0.4,0.4,0.9,0.4,1.3,0s0.4-0.9,0-1.3L22.2,14.3z M25.4,20.5
		c0.9-1.9,3.2-2.6,5.1-1.7c1.9,0.9,2.6,3.2,1.7,5.1c-0.2,0.4-0.4,0.6-0.6,0.9c0.4,0.6,0.7,1.1,0.9,1.7c2.2-2.1,2.4-5.6,0.4-7.9
		C30.8,16.4,27.3,16,25,18c-0.7,0.6-1.3,1.3-1.5,2.2C24.1,20.3,24.8,20.5,25.4,20.5z M33.8,28.2c1.1,0.4,2.1,1.1,2.8,2.1
		c0.4-0.4,0.4-0.9,0.2-1.3l0,0l-1.3-1.4c-0.4-0.4-0.9-0.4-1.3,0C33.8,27.6,33.8,28,33.8,28.2z M37.2,21.3c-0.6,0-0.9,0.4-0.9,0.9
		c0,0.6,0.4,0.9,0.9,0.9h1.9c0.6,0,0.9-0.4,0.9-0.9c0-0.6-0.4-0.9-0.9-0.9H37.2z"/>
</g>
</svg>
