<?xml version="1.0" encoding="utf-8"?>
<!-- Generator: Adobe Illustrator 25.2.3, SVG Export Plug-In . SVG Version: 6.00 Build 0)  -->
<svg version="1.1" id="Capa_1" xmlns="http://www.w3.org/2000/svg" xmlns:xlink="http://www.w3.org/1999/xlink" x="0px" y="0px"
	 viewBox="0 0 50 50" style="enable-background:new 0 0 50 50;" xml:space="preserve">
<style type="text/css">
	.st0{fill:#FFFFFF;}
</style>
<g>
	<path class="st0" d="M12.7,26.3L12.7,26.3c0.2,0,0.3,0,0.5-0.1c0.3-0.2,0.5-0.5,0.5-0.8c0-0.5-0.4-0.9-0.9-1.1l-4.3-0.1
		c-0.3,0-0.5,0.1-0.7,0.3c-0.2,0.3-0.3,0.4-0.3,0.7c0,0.5,0.4,0.9,0.9,1.1H12.7L12.7,26.3z M12.7,25.9L12.7,25.9L12.7,25.9
		L12.7,25.9z"/>
	<path class="st0" d="M19.8,16.9c0,0,0.1,0,0.2,0c0.2,0,0.2-0.1,0.3-0.1c0.3-0.2,0.5-0.6,0.4-0.9l-0.7-3.8c-0.1-0.4-0.5-0.7-0.9-0.7
		h-0.1c-0.2,0-0.5,0.2-0.6,0.4s-0.2,0.5-0.2,0.7l0.7,3.6C19.1,16.6,19.5,16.9,19.8,16.9z"/>
	<path class="st0" d="M13.6,19.7c0.2,0.1,0.4,0.2,0.6,0.2c0.2,0,0.3,0,0.5-0.1c0.1-0.1,0.2-0.1,0.3-0.2c0.2-0.2,0.2-0.4,0.2-0.7
		c0-0.3-0.1-0.5-0.3-0.6l-3.2-2.7c-0.3-0.1-0.5-0.2-0.7-0.2l0,0c-0.3,0-0.5,0.1-0.7,0.3c-0.2,0.2-0.3,0.4-0.3,0.7
		c0,0.2,0.1,0.5,0.3,0.6L13.6,19.7z"/>
	<path class="st0" d="M20,32.9c-0.1,0-0.1,0-0.2,0c-0.4,0-0.8,0.3-0.9,0.7l-0.6,3.8c-0.1,0.5,0.2,1.1,0.8,1.2h0.1l0,0
		c0.2,0,0.3,0,0.4-0.1c0.2-0.1,0.4-0.4,0.5-0.6l0.7-3.8c0-0.2,0-0.5-0.1-0.7C20.5,33.2,20.2,32.9,20,32.9z"/>
	<path class="st0" d="M14.8,30.2c-0.2,0-0.4,0.1-0.6,0.2L11,33.1c-0.4,0.3-0.5,0.9-0.1,1.4c0.2,0.2,0.5,0.3,0.7,0.3l0,0
		c0.2,0,0.3,0,0.4-0.1l0.1-0.1l3.2-2.7c0.4-0.3,0.4-0.9,0.1-1.4C15.4,30.3,15.1,30.2,14.8,30.2z"/>
	<path class="st0" d="M22.6,30c-0.3,0.1-0.6,0.1-0.9,0.1c0,0,0,0-0.1,0c-1.4,0-2.6-0.5-3.6-1.5c-1-0.9-1.5-2.2-1.5-3.6
		c0-1.4,0.4-2.6,1.4-3.6c1-0.9,2.2-1.5,3.6-1.5l0,0c0.4,0,0.8,0,1.4,0.1c0.1,0,0.2,0,0.3,0c0.5,0,0.9-0.3,1.1-0.8
		c0.1-0.6-0.2-1.2-0.8-1.4c-0.6-0.1-1.2-0.2-1.9-0.2c-1.9,0-3.8,0.8-5.1,2.2c-1.4,1.4-2,3.2-2,5.1c0,1.9,0.8,3.8,2.3,5.1
		c1.4,1.4,3.2,2.1,5.1,2.1H22c0.5,0,0.9-0.1,1.4-0.1c0.2,0,0.4-0.1,0.5-0.3c0.2-0.2,0.3-0.6,0.3-0.9C23.9,30.3,23.2,29.9,22.6,30z"
		/>
	<path class="st0" d="M40.2,20.3c-1.2-1.2-2.9-1.9-4.5-1.9h-0.1c-0.3,0-0.6,0-1.1,0.1c-1.5-3.2-4.7-5.1-8-5.1h-0.1h-0.2v2.2h0.2
		c2.9,0,5.6,1.8,6.5,4.6l0.3,1.1l1.1-0.3c0.5-0.1,1.1-0.2,1.5-0.2c2.4,0,4.4,2,4.4,4.4c0,1.2-0.4,2.3-1.2,3.2
		c-0.8,0.8-1.9,1.4-3,1.4h-1.8c-0.3,0-0.5,0.1-0.7,0.3c-0.2,0.2-0.3,0.5-0.3,0.8s0.1,0.5,0.3,0.7s0.4,0.3,0.7,0.3l0,0H36
		c1.8,0,3.3-0.7,4.6-2c1.2-1.2,1.9-2.9,1.9-4.7C42.2,23.2,41.5,21.6,40.2,20.3z"/>
</g>
</svg>
