<?xml version="1.0" encoding="utf-8"?>
<!-- Generator: Adobe Illustrator 25.2.3, SVG Export Plug-In . SVG Version: 6.00 Build 0)  -->
<svg version="1.1" id="Capa_1" xmlns="http://www.w3.org/2000/svg" xmlns:xlink="http://www.w3.org/1999/xlink" x="0px" y="0px"
	 viewBox="0 0 50 50" style="enable-background:new 0 0 50 50;" xml:space="preserve">
<style type="text/css">
	.st0{fill:#89CDD8;}
</style>
<g>
	<path class="st0" d="M10.9,15.4c0-1.4,1.2-2.6,2.6-2.6h19.3c1.5,0,2.6,1.2,2.6,2.6v18.4c0,0.5-0.2,1.2-0.3,1.7h1.2
		c0.5,0,0.9-0.3,0.9-0.9V18.9c0-0.5,0.3-0.9,0.9-0.9s0.9,0.3,0.9,0.9v15.8c0,1.5-1.2,2.6-2.6,2.6H13.6c-1.5,0-2.6-1.2-2.6-2.6l0,0
		L10.9,15.4L10.9,15.4z M32,35.5c0.7,0,1.2-0.3,1.6-0.7c0.2-0.2,0.2-0.5,0.2-0.9V15.4c0-0.5-0.3-0.9-0.9-0.9H13.6
		c-0.5,0-0.9,0.3-0.9,0.9v19.3c0,0.5,0.3,0.9,0.9,0.9L32,35.5L32,35.5z"/>
	<path class="st0" d="M14.4,16.2h17.5v3.5H14.4V16.2z M14.4,21.5h7v5.2h-7V21.5z M14.4,28.5h7v1.7h-7V28.5z M14.4,32h7v1.7h-7
		C14.4,33.8,14.4,32,14.4,32z M23.2,21.5h3.5v1.7h-3.5V21.5z M28.4,21.5h3.5v1.7h-3.5V21.5z M23.2,25h3.5v1.7h-3.5V25z M28.4,25h3.5
		v1.7h-3.5V25z M23.2,28.5h3.5v1.7h-3.5V28.5z M28.4,28.5h3.5v1.7h-3.5V28.5z M23.2,32h3.5v1.7h-3.5V32z M28.4,32h3.5v1.7h-3.5V32z"
		/>
</g>
</svg>
