<?xml version="1.0" encoding="utf-8"?>
<!-- Generator: Adobe Illustrator 25.2.3, SVG Export Plug-In . SVG Version: 6.00 Build 0)  -->
<svg version="1.1" id="Capa_1" xmlns="http://www.w3.org/2000/svg" xmlns:xlink="http://www.w3.org/1999/xlink" x="0px" y="0px"
	 viewBox="0 0 50 50" style="enable-background:new 0 0 50 50;" xml:space="preserve">
<style type="text/css">
	.st0{fill:#FFFFFF;}
</style>
<g>
	<path class="st0" d="M25.2,28.7c0.6,0,0.9-0.4,1.1-1.1c0-0.9,0.4-1.6,1.6-2.4c1.3-0.9,1.9-2.1,1.9-3.8c0-2.4-1.7-4.1-4.4-4.1
		c-1.9,0-3.4,0.9-3.9,2.4c-0.2,0.4-0.2,0.8-0.2,1.3c0,0.8,0.4,1.1,0.9,1.1c0.6,0,0.9-0.2,1.1-0.9c0.4-1.1,0.9-1.7,2.1-1.7
		s1.9,0.8,1.9,2.1c0,1.1-0.4,1.7-1.6,2.4c-1.1,0.7-1.7,1.7-1.7,2.9v0.2C24,28.1,24.5,28.7,25.2,28.7z"/>
	<path class="st0" d="M38.4,21.2l-1.1-1.1v-1.7c0-0.2,0-0.2,0-0.2c0-3-2.4-5.4-5.4-5.4h-1.7l-1.4-1.3c-2.1-2.1-5.6-2.1-7.8,0.4
		L19.9,13h-1.7C18,13,18,13,18,13c-3,0-5.4,2.4-5.4,5.4v1.7l-1.1,1.1c-2.1,2.1-2.1,5.6,0.2,7.6l1.1,1.1v1.7c0,0.2,0,0.2,0,0.2
		c0,3,2.4,5.4,5.4,5.4h1.7l1.1,1.1c2.3,2.3,5.6,2.1,7.8,0l1.1-1.1h1.7c0.2,0,0.2,0,0.2,0c3,0,5.4-2.4,5.4-5.4v-1.7l1.1-1.1
		C40.6,26.8,40.4,23.4,38.4,21.2z M36.9,27.4l-1.7,1.7v2.4c0,2.1-1.7,3.6-3.6,3.6h-2.4l-1.7,1.7c-1.6,1.6-3.8,1.3-5.1,0l-1.7-1.7
		h-2.4c-2.1,0-3.6-1.7-3.6-3.6v-2.4L13,27.4c-1.6-1.6-1.3-3.8,0-5.1l1.7-1.7v-2.4c0-2.1,1.7-3.6,3.6-3.6h2.4l1.9-1.7
		c1.6-1.6,3.8-1.3,5.1,0l1.7,1.7c0,0,2.1,0,2.3,0c2.1,0,3.6,1.7,3.6,3.6v2.4l1.7,1.7C38.4,23.9,38.1,26.2,36.9,27.4z"/>
	<path class="st0" d="M23.1,31.5c0-1.1,0.8-1.9,1.9-1.9c1.2,0,1.9,0.8,1.9,1.9l0,0c0,1.1-0.8,1.9-1.9,1.9
		C23.9,33.3,23.1,32.6,23.1,31.5z"/>
</g>
</svg>
