<?xml version="1.0" encoding="utf-8"?>
<!-- Generator: Adobe Illustrator 25.2.3, SVG Export Plug-In . SVG Version: 6.00 Build 0)  -->
<svg version="1.1" id="Capa_1" xmlns="http://www.w3.org/2000/svg" xmlns:xlink="http://www.w3.org/1999/xlink" x="0px" y="0px"
	 viewBox="0 0 50 50" style="enable-background:new 0 0 50 50;" xml:space="preserve">
<style type="text/css">
	.st0{fill-rule:evenodd;clip-rule:evenodd;fill:#FFFFFF;}
</style>
<g>
	<path class="st0" d="M20.7,41.9c0.2,0,0.4-0.1,0.5-0.2c0.1-0.2,0.2-0.3,0.2-1.1s0-0.9-0.2-1.1c-0.1-0.1-0.3-0.2-0.5-0.2
		s-0.4,0.1-0.5,0.2C20,39.6,20,39.8,20,40.6s0,0.9,0.2,1.1C20.3,41.8,20.5,41.9,20.7,41.9z"/>
	<path class="st0" d="M18,39.8c0-0.3-0.2-0.5-0.6-0.5h-0.7v1h0.7C17.8,40.3,18,40.1,18,39.8z"/>
	<path class="st0" d="M21.2,46.1c0,0.5,0.1,1,0.6,1s0.6-0.4,0.6-1c0-0.5-0.1-0.9-0.6-0.9C21.3,45.2,21.2,45.6,21.2,46.1z"/>
	<path class="st0" d="M17.6,45.5c-0.1-0.2-0.3-0.4-0.6-0.4c-0.3,0-0.5,0.1-0.6,0.4c-0.1,0.1-0.1,0.2-0.1,0.4h1.3
		C17.7,45.7,17.7,45.6,17.6,45.5z"/>
	<path class="st0" d="M24.2,6.8l0.2,0.1h0.1h-0.1L24.2,6.8L24.2,6.8z"/>
	<path class="st0" d="M24.8,39.8c0-0.3-0.2-0.5-0.6-0.5h-0.7v1.1h0.7C24.6,40.4,24.8,40.1,24.8,39.8z"/>
	<path class="st0" d="M9.5,46.7c0,0.3,0.2,0.4,0.5,0.4c0.2,0,0.4,0,0.5-0.2c0.1-0.1,0.1-0.2,0.1-0.4v-0.2H10
		C9.7,46.3,9.5,46.4,9.5,46.7z"/>
	<path class="st0" d="M49.5,49.5V24.7v0.2l0,0l0,0l0,0l0,0v0.3l0,0h-0.1l-0.2,0.1v0.1v0.1L49,25.4h-0.1v-0.1h-0.1l-0.2,0.1l-0.1,0.1
		l-0.1,0.1l0,0l0,0v-0.1l-0.1-0.1h-0.1l-0.1,0.1v0.2l0,0l-0.3-0.1l-0.1,0.1l-0.1,0.1L47.2,26h-0.1L47,26v-0.1l-0.1-0.1L46.7,26v0.2
		h-0.2l-0.1,0.1v0.1l-0.2-0.1v-0.2V26v-0.1L46,26.1v0.1v0.1l-0.1-0.1l0,0l-0.2,0.1v0.2h-0.3l-0.2,0.1h-0.3l-0.3,0.1l-0.3,0.2
		l-0.6,0.2h-0.4l-0.4,0.3l-0.6-0.1l-0.5,0.1l-0.3,0.1l-0.3,0.1L41,27.7l-0.4,0.1l-0.3,0.1l-0.9,0.4l-1.1-0.2L38.2,28l0,0l0,0v-0.1
		l0,0L38,27.8h-0.3V28h-0.1l-0.1,0.1l-0.1,0.2l-0.1,0.1l-0.2,0.1L37,28.6l-0.1,0.1h-0.1l-0.2,0.2L36.4,29h-0.1h-0.1l0,0v0.1L36,29
		l-0.1,0.1v0.1L35.4,29l-0.7,0l-0.2-0.2l-0.2-0.2l-0.1-0.1H34l-0.2,0.1l-0.1,0.2l-0.2,0.1l-0.2,0.2l0,0l0,0L33,29.2l-0.3,0.2
		l-0.5,0.2l-0.4,0.3L31.5,30l-0.4,0.1l-0.5,0.2l-0.5,0.2l-0.3,0.1h-0.3h-0.1L29,30.7l-0.5-0.1l-0.2-0.2L28,30.3l-0.4,0.3l-0.4,0.3
		l0.1,0.1l-0.2,0.1l-0.6,0.4L26,31.8l-0.2,0.1V32h-0.2h-0.2v0.1L24.8,32l-0.3-0.3l-0.4-0.2l-0.3-0.2l-0.1-0.5v-0.5v-0.2V30v-0.1h0.1
		V30v-0.1h0.1v-0.1l0,0l0,0l0.1-0.2l0.1-0.1v-0.1l0,0l0.1-0.1l-0.1-0.1h0.1h0.1v-0.4l0.1-0.4l0.3-0.4l0.1-0.4l-0.1-0.1h-0.1
		l-0.3,0.2L24,27.9l-0.2,0.4l-0.2,0.3L23.3,29L23,29.1l-0.3,0.4l-0.2,0.3v0.1l-0.3,0.3l-0.1,0.4l-0.1,0l-0.2,0.2L21.7,31l-0.3,0.2
		l-0.1,0.1h-0.1L21,31.6l-0.2,0.3L20.6,32l-0.2,0.3l-0.3,0.2l-0.2,0.3l-0.4,0.1L19.4,33L19,33h-0.2l-0.5,0.2l-0.7,0.2h-0.3l-0.2,0.1
		l0,0l0,0L17,33.4h-0.3l-0.2-0.3v-0.3l0.1-0.5V32l0.1-0.3l0.1-0.2V31l0.1-0.2l0.2-0.5v-0.5l0.2-0.5v-0.5l0.2-0.4v-0.1v-0.1v0.1h-0.1
		v-0.1l0.2-0.4l0.2-0.3V27l0.1-0.4l0.1-0.4l0.1-0.4l0.2-0.4v-0.5l0.2-0.3v-0.5l0.1-0.1l0.1-0.2v-0.5l0.1-0.1l0.1-0.1v-0.5l0.2-0.4
		v-0.6l0.1,0.1l0.1-0.1L19.1,22l0.1-0.4l0.2-0.3l0.1-0.7l0.1-0.7l0.2-0.4V19h0.1l0.1-0.6l0.2-0.4v-0.4l0.2-0.4l0.2-0.4v-0.5
		l-0.1-0.4l-0.2,0.2v0.3L20,16.8L19.9,17l-0.1,0.3l-0.1,0.2l-0.2,0.2l-0.2,0.2l-0.2,0.3L19,18.5l-0.2,0.3l-0.2,0.3l-0.2,0.2
		l-0.2,0.2L18,19.8l-0.2,0.5h-0.1l-0.1,0.1v0.1l-0.3,0.2V21v0.1l-0.2,0.2l-0.2,0.3v0.1v0.1l-0.2,0.1v0.2v0.1l-0.2,0.2l-0.2,0.3
		l-0.1,0.2L16,23l-0.2,0.1l-0.1,0.3h0.1l-0.2,0.1l-0.1,0.1l-0.2,0.3L15.2,24L15,24.4l0,0l-0.2,0.2l0,0L14.6,25v0.1l-0.1,0.2l0,0
		l-0.1,0.1v0.1v0.1l-0.2,0.1L14,25.9l-0.3,0.3l-0.2,0.2l-0.1,0.3l-0.2,0.1l-0.1,0.3v0.2h0.3l0.3-0.2h-0.1h0.5l0.1-0.1l0.2-0.1l0,0
		l0.1,0.1l0.2,0.1l0,0h0.2H15h0.1l0,0v-0.2v-0.1l0,0l0.1-0.2v0.2l0.1,0.2h0.1h0.1l0.1-0.3h0.2l0,0l0,0v0.1H16v0.6l-0.2,0.2h-0.2v0.1
		v0.1h0.2l0.1,0.1h-0.5h-0.1L15,28.1l-0.2,0.1v0.1v0.1l-0.1,0.2l0,0h-0.1v-0.1v-0.1l0,0l-0.1,0.1h-0.2L14,28.8v-0.1h-0.1v-0.2
		l-0.1-0.1l-0.2,0.2l-0.2,0.2l-0.3,0.1L13,29l-0.1-0.1l0,0h-0.2l-0.2,0.4l-0.2,0.1h-0.1l-0.4,0.1l-0.2,0.1v0.1l-0.3,0.1L10.6,30v0.2
		v0.2h-0.1h-0.1v-0.1l-0.2-0.1L10,30.3v0.3l0.1,0.3l0,0l-0.6,0.2l-0.1,0.3l-0.1,0.2l-0.6,0.8l-0.1,0.1L8.4,33l-0.2-0.1H7.9v0.4
		L8,33.6l-0.4,0.2l0,0.2l0.1,0.2l-0.4,0.1L7,34.1L6.9,34l-0.1-0.1v0.5L7,34.8H6.7l-0.2-0.1l-0.4,0.4l-0.2,0.4l-0.7,0.3L5.3,36
		L5,36.4l-0.1,0.3L4.5,37l-0.4,0.3L4,37.9l-0.6,0.8l-0.5,0.4l-0.2,0.8l-0.8,0.3l-1,0.8H0.6v-1.2v9.7H49.5L49.5,49.5z M38,47.5h-0.6
		v-0.3c-0.2,0.2-0.5,0.3-0.8,0.3s-0.5-0.1-0.7-0.3s-0.3-0.5-0.3-0.8v-1.8h0.6v1.7c0,0.4,0.3,0.6,0.6,0.6s0.6-0.2,0.6-0.6v-1.7H38
		V47.5L38,47.5z M46.4,47.5h-0.6v-0.3c-0.2,0.2-0.4,0.3-0.8,0.3c-0.4,0-0.6-0.1-0.8-0.3C44.1,47,44,46.8,44,46.6
		c0-0.5,0.3-0.8,1-0.8h0.8v-0.2c0-0.4-0.2-0.5-0.6-0.5c-0.3,0-0.5,0.1-0.6,0.3L44.2,45c0.3-0.3,0.5-0.4,1-0.4c0.8,0,1.2,0.3,1.2,1
		L46.4,47.5L46.4,47.5z M45,44.2l0.4-0.9H46l-0.6,0.9H45z M44.5,38.6h0.6l1.4,3.9h-0.8l-0.2-0.7h-1.4l-0.2,0.7H43L44.5,38.6z
		 M43,44.7c0.3,0,0.5,0.1,0.7,0.3l-0.4,0.4c-0.1-0.1-0.2-0.2-0.4-0.2c-0.3,0-0.6,0.2-0.6,0.6v1.7h-0.6v-2.9h0.6V45
		C42.4,44.8,42.7,44.7,43,44.7z M39.7,38.6h0.7L42,41v-2.4h0.8v3.9h-0.7l-1.6-2.4v2.4h-0.8V38.6z M40.4,44.7c0.3,0,0.5,0.1,0.7,0.3
		l-0.4,0.4c-0.1-0.1-0.2-0.2-0.4-0.2c-0.3,0-0.6,0.2-0.6,0.6v1.7h-0.6v-2.9h0.6V45C39.8,44.8,40.1,44.7,40.4,44.7z M37.4,38.6H38
		l1.4,3.9h-0.8l-0.2-0.7H37l-0.2,0.7H36L37.4,38.6z M33.5,38.6h2.8v0.7h-1v3.2h-0.8v-3.2h-1V38.6L33.5,38.6z M33.8,44.7
		c0.3,0,0.5,0.1,0.7,0.3c0.3,0.3,0.3,0.8,0.3,1.2s0,0.9-0.3,1.2c-0.2,0.2-0.4,0.3-0.7,0.3s-0.5-0.1-0.8-0.3v0.3h-0.6v-4H33V45
		C33.2,44.7,33.5,44.7,33.8,44.7z M32.3,38.6h0.8v3.9h-0.8V38.6z M29.3,38.6h0.8v3.2h1.8v0.7h-2.5L29.3,38.6L29.3,38.6z M29.8,43.5
		h0.5l1.5,4h-0.6l-0.3-0.8h-1.6L29,47.5h-0.6L29.8,43.5z M26.3,39c0.3-0.3,0.6-0.4,1.1-0.4c0.4,0,0.8,0.2,1.1,0.4
		c0.4,0.4,0.4,0.9,0.4,1.6s0,1.2-0.4,1.6c-0.3,0.3-0.6,0.4-1.1,0.4c-0.4,0-0.8-0.2-1.1-0.4c-0.4-0.4-0.4-0.9-0.4-1.6
		S25.9,39.4,26.3,39z M26.3,46v0.3h-1.9c0,0.5,0.3,0.8,0.7,0.8c0.3,0,0.5-0.1,0.7-0.3l0.4,0.3c-0.3,0.3-0.6,0.4-1.1,0.4
		c-0.7,0-1.3-0.4-1.3-1.5c0-0.9,0.5-1.5,1.2-1.5C25.9,44.7,26.3,45.2,26.3,46z M22.7,38.6h1.5c0.8,0,1.3,0.6,1.3,1.2
		c0,0.7-0.5,1.2-1.3,1.2h-0.8v1.5h-0.8L22.7,38.6L22.7,38.6z M22.4,45v-1.4H23v4h-0.6v-0.3c-0.2,0.3-0.4,0.3-0.8,0.3
		c-0.3,0-0.5-0.1-0.7-0.3c-0.3-0.3-0.3-0.8-0.3-1.2s0-0.9,0.3-1.2c0.2-0.2,0.4-0.3,0.7-0.3C21.9,44.7,22.2,44.7,22.4,45z M19.6,39
		c0.3-0.3,0.6-0.4,1.1-0.4c0.4,0,0.8,0.2,1.1,0.4c0.4,0.4,0.4,0.9,0.4,1.6s0,1.2-0.4,1.6c-0.3,0.3-0.6,0.4-1.1,0.4
		c-0.4,0-0.8-0.2-1.1-0.4c-0.4-0.4-0.4-0.9-0.4-1.6S19.2,39.4,19.6,39z M16,38.6h1.5c0.8,0,1.3,0.5,1.3,1.2c0,0.6-0.3,0.9-0.7,1
		l0.9,1.7h-1L17.3,41h-0.6v1.6H16V38.6z M17.1,44.7c0.8,0,1.2,0.6,1.2,1.4v0.3h-1.9c0,0.5,0.3,0.8,0.7,0.8c0.3,0,0.5-0.1,0.7-0.3
		l0.4,0.3c-0.3,0.3-0.6,0.4-1.1,0.4c-0.7,0-1.3-0.4-1.3-1.5C15.9,45.2,16.4,44.7,17.1,44.7z M7.4,47.5H6.9l-1.3-4h0.6l0.9,2.9
		L8,43.5h0.6L7.4,47.5z M15.4,47.5H15c-0.5,0-0.8-0.4-0.8-0.8v-3.2h0.6v3.2c0,0.2,0.1,0.3,0.3,0.3h0.3C15.4,47,15.4,47.5,15.4,47.5z
		 M12.7,38.6h2.8v0.7h-1v3.2h-0.8v-3.2h-1V38.6L12.7,38.6z M12.9,43.5v3.2c0,0.2,0.1,0.3,0.3,0.3h0.3v0.5h-0.4
		c-0.5,0-0.8-0.4-0.8-0.8v-3.2H12.9L12.9,43.5z M9.9,38.6h2.6v0.7h-1.8v0.9h1.5v0.7h-1.5v1h1.8v0.7H9.9V38.6z M10.1,44.7
		c0.8,0,1.2,0.3,1.2,1v1.9h-0.6v-0.3c-0.2,0.2-0.4,0.3-0.8,0.3c-0.4,0-0.6-0.1-0.8-0.3C9,47.2,8.9,47,8.9,46.7c0-0.5,0.3-0.8,1-0.8
		h0.8v-0.2c0-0.4-0.2-0.5-0.6-0.5c-0.3,0-0.5,0.1-0.6,0.3l-0.4-0.4C9.3,44.8,9.6,44.7,10.1,44.7z M5.6,38.6h0.8l1,2.1l1-2.1h0.8v3.9
		H8.4v-2.3l-0.8,1.5H7.1l-0.8-1.5v2.3H5.6V38.6L5.6,38.6z"/>
	<path class="st0" d="M37.7,39.8l-0.5,1.4h1L37.7,39.8z"/>
	<path class="st0" d="M0.7,39l-0.2,0.1v0.7L0.7,39z"/>
	<path class="st0" d="M44.8,39.8l-0.5,1.4h1L44.8,39.8z"/>
	<path class="st0" d="M24.5,45.5c-0.1,0.1-0.1,0.2-0.1,0.4h1.3c0-0.2,0-0.3-0.1-0.4c-0.1-0.2-0.3-0.4-0.6-0.4
		C24.8,45.1,24.6,45.3,24.5,45.5z"/>
	<path class="st0" d="M44.6,46.7c0,0.3,0.2,0.4,0.5,0.4c0.2,0,0.4,0,0.5-0.2c0.1-0.1,0.1-0.2,0.1-0.4v-0.2H45
		C44.8,46.3,44.6,46.4,44.6,46.7z"/>
	<path class="st0" d="M27.3,41.9c0.2,0,0.4-0.1,0.5-0.2c0.2-0.2,0.2-0.3,0.2-1.1s0-0.9-0.2-1.1c-0.1-0.1-0.3-0.2-0.5-0.2
		s-0.4,0.1-0.5,0.2c-0.2,0.2-0.2,0.3-0.2,1.1s0,0.9,0.2,1.1C26.9,41.8,27.1,41.9,27.3,41.9z"/>
	<path class="st0" d="M33.6,47.1c0.5,0,0.6-0.4,0.6-1c0-0.5-0.1-0.9-0.6-0.9S33,45.6,33,46.1S33.1,47.1,33.6,47.1z"/>
	<path class="st0" d="M30.1,44.4l-0.6,1.8h1.2L30.1,44.4z"/>
	<path class="st0" d="M24.9,6.8L24.9,6.8H25H24.9L24.9,6.8z"/>
	<path class="st0" d="M48.3,24.4v0.1l0,0l0,0V24.4L48.3,24.4L48.3,24.4z"/>
	<path class="st0" d="M47.3,25v0.2l0,0l0,0l0,0V25L47.3,25L47.3,25z"/>
	<path class="st0" d="M37,25.2l-0.3,0.4l-0.2,0.3l-0.3,0.3l-0.3,0.5l-0.1,0.5v0.2l0.2,0.1h0.1l0.1,0.1l0.2-0.1l0.2-0.1l0,0l0.2-0.3
		L37,27l0.1-0.3l0.1-0.2v-0.1h0.1l0.2-0.2l0.3-0.5v-0.6l-0.2-0.5L37,25.2z"/>
	<path class="st0" d="M48.7,24.5L48.7,24.5L48.7,24.5L48.7,24.5l-0.1,0.1v0.1h0.1h0.1l0,0v-0.1h-0.1V24.5z"/>
	<path class="st0" d="M24.5,6.5L24.5,6.5L24.5,6.5L24.5,6.5L24.5,6.5L24.5,6.5z"/>
	<path class="st0" d="M14.8,27.9L14.8,27.9L14.8,27.9h-0.2l0,0H14.8L14.8,27.9z"/>
	<path class="st0" d="M48.4,25.1L48.4,25.1L48.4,25.1l0.1,0.1L48.4,25.1L48.4,25.1L48.4,25.1L48.4,25.1z"/>
	<path class="st0" d="M14.6,28.1l0.1-0.1h-0.1h-0.1v0.2L14.6,28.1L14.6,28.1z"/>
	<path class="st0" d="M30.2,27l0.1-0.2l0.1-0.1l0.3-0.3l0.2-0.3l0.1-0.4l-0.2-0.2l-0.3,0.1L30.1,26l-0.2,0.5l-0.1,0.4v0.3l0.3-0.1
		L30.2,27z"/>
	<path class="st0" d="M14.4,27.3v-0.2l0,0h-0.1v0.2H14.4L14.4,27.3z"/>
	<path class="st0" d="M12.9,27.1L12.9,27.1H13V27h-0.1l0,0V27.1z"/>
	<path class="st0" d="M8,31l0.2,0.3l0,0v-0.1h0.1L8.2,31l0,0H8z"/>
	<path class="st0" d="M15.4,27.8v-0.2h-0.1h-0.1v0.2H15.4L15.4,27.8z"/>
	<path class="st0" d="M0.5,0.5v38.6l0.3-0.2l0.4-0.4L1.5,38l0.6-0.6l0.5-0.6l0.3-0.5l0.5-0.4l0.2-0.3l0.3-0.4l0.3-0.7L4.8,34v-0.3
		L5,33.5L5.4,33l0.4-0.5L6,32.2L6.3,32l-0.1,0.1v0.1l0.1,0.1l0.2-0.5L6.8,32h0.3l0.1-0.2l-0.1-0.1H7l-0.2,0.1l0.1-0.3H7H6.9
		l-1.1,0.4H5.6V32H5.3l-0.2-0.3H5H4.9l-0.1,0.1l0.1,0.1H4.6H4.3L4,31.4l-0.2-0.5l-0.4-0.2v-0.5l0.9-0.9L5,29.2l1.5-0.4h0.8L8,28.6
		l0.4-0.1l0.4-0.2h0.4v-0.1L9.3,28v-0.1l0.2,0.3l0,0l0,0l0.5-0.1l-0.2-0.2l0.2-0.3l0.1-0.2l0.2-0.1v-0.2l0.1,0.1l0.1-0.2v-0.2
		l0.3-0.4l0.4-0.3l0.1-0.2v-0.2l0.2-0.1l0.6-0.4H12l0.3-0.3l0.2-0.3l0.1-0.2v-0.3l0,0l0.2-0.2l0.3-0.3l0.3-0.4l0.3-0.3l0.1-0.1
		l-0.1-0.1l0.1-0.1l0,0l0.3-0.2l0-0.4l0,0l0.2-0.1v-0.1l0.1-0.3l0,0l0.2-0.1v-0.2l0,0l0.2-0.1l0.1-0.1l0.1-0.2l0.1-0.2l0.2-0.3
		l0.1-0.1h0.1h0.1V20l0.2-0.3v-0.2H16v-0.2l0.7-0.7l0.5-0.9l0.2-0.2l0.2-0.2l0.3-0.4l0.2-0.5l0.3-0.3l0.1-0.4l0.5-0.1l0.1-0.4v-0.3
		l0.2-0.2l0.2-0.3l0.1-0.3l0.2-0.2v-0.2l0.1,0.1l0.2-0.4l0.3-0.3l0.2-0.3l0.4-0.2l-0.1-0.1H21v-0.2l0.2-0.2l0.1-0.3l0.2-0.1
		l-0.2-0.3l0.3-0.1l0.2-0.4l0.1-0.4l0.3-0.3l0.2-0.3l0.1-0.5l0.3-0.3l0.3-0.4V8.4L23,8.3l0.4-0.2l0.4,0.2h0.4v0.4l0.2,0.2V9h0.1
		l-0.2,1l-0.2,1.1l-0.2,0.1l-0.1,0.2v0.3l-0.2,0.1l-0.1,0.3l0.1,0.2h-0.1l-0.1,0.2v0.3L23.2,13v0.7L23,14l-0.3,0.4v0.3L22.5,15v0.5
		L22.4,16v0.6l-0.2,0.3L22,17.2v0.2v0.4l-0.2,0.5V19l-0.1,0.3l-0.1,0.4l-0.2,0.4l-0.2,0.5v0.5L21,21.5v0.4L20.9,22h-0.1l-0.2,0.7
		l-0.1,0.7l-0.1,0.1v0.1v0.5l-0.2,0.4l-0.1,0.3v0.3l-0.2,0.1v0.2v0.3l-0.2,0.2v0.6L19.5,27v0.4l-0.2,0.3L19.2,28l0,0l0,0l0,0
		l0.1,0.1l-0.1,0.3v0.4L19,29.4v0.4l-0.4,1.5h0.1l0.1-0.1L19,31l0.2-0.1l0.2-0.3l0.1,0.1l0.1-0.2l0.2-0.1l0.2-0.2l0.2-0.3l0.3-0.3
		l0.4-0.3v-0.2h0.2h0.1V29h0.2v-0.2l0.1,0.1l0.2-0.3l0.2-0.3l0.1-0.4l0.3-0.3l0.1-0.9l0.4-0.8l0.2-0.2l0.3-0.2l0.5,0.2l0.1,0.2
		l0.2,0.1l0.3-0.3h0.4h0.1v-0.1h0.6H26l0.3,0.2l0.2,0.3l0.1,0.2l0.1,0.1l-0.1,0.7v0.5L26.3,28v0.3l-0.3,0L25.9,29h-0.2l-0.1,0.1
		l-0.2,0.7l0.3,0.5l0.5-0.2l0.4-0.1l0.4-0.5l0.6-0.3l0.5-0.9l0.2-1l0.3-0.6l0.2-0.6l0.2-0.4l0.2-0.2l0.2-0.3l0.2-0.3l0.2-0.1
		l0.1-0.1l0.3-0.2l0.3-0.2h0.2h0.2l0.4,0.1l0.1,0.1l0.2,0.2l0.1,0.2h0.1V25l0.2,0.2l0,0.3l0.1,0.2v0.6l-0.2,0.4V27l-0.2,0.3v0.1l0,0
		h-0.1l-0.2,0.2l-0.2,0.3L31.1,28h-0.2l-0.2,0.1l-0.2,0.1l-0.2,0.2l-0.2,0.2L30,28.7h-0.1v0.2V29h0.6h0.6l0.3-0.1l0.1-0.2h0.2h0.1
		v-0.1l0.3-0.1l0.3-0.1l0.4-0.4l0.4-0.3v-0.1l0.1-0.1l0.1-0.1l0.3-0.3l0.2-0.3l0.4-0.2l0.2-0.4l0.3-0.2l0.2-0.3l0.2-0.2l0.2-0.2
		l0.2-0.2l0.2-0.2l0.2-0.4l0.2-0.3l0.2-0.1l0.2-0.1l0.2-0.3l0.3-0.3l0.3-0.3l0.3-0.1l0.1-0.1v-0.1l0.6,0.1l0.4-0.2v-0.1l0.5,0.1
		l0.2,0.3v0.2l0.1,0.2v0.2l0.1,0.1l-0.2,0.8h-0.1h-0.1l0,0l0.1,0.1L39,25.1l-0.1,0.6l-0.1,0.6l0.2,0.5h-0.1l0.6,0.2l0,0l0,0h-0.1
		v0.1h0.1h0.1V27l1-0.3l0.3-0.1l0.6-0.1l0.3-0.1h0.3l0.3-0.1l0.3-0.1l0.5-0.1l0.5-0.2l0.3-0.2h0.4l0.2-0.1l0.2-0.1H45l0.4-0.2h0.2
		h0.1L46,25l0.2-0.1h0.2h-0.1l0,0V25l0.2-0.1V25l0.1,0.1l0.1-0.1v-0.1l0,0h-0.1l0.1-0.1h0.1H47l0.1-0.1l0.1,0.1l0.2,0.1l0.2-0.2l0,0
		l0.4-0.2h0.1H48l0.2-0.1l0.1-0.2l0,0v0.1l0.1,0.1l0,0v-0.1h-0.1h-0.1l0.1-0.2l0.1-0.1l0,0v0.2v0.1v0.1h0.2l0.2-0.1l0,0h0.1h0.2v0.1
		l0,0h0.2h-0.1l0.1,0.2v0.1v-24H0.5V0.5z M27.1,4L27,4.3l-0.3,0.2l-0.1,0.2l-0.1,0.1V5l-0.2,0.1v0.1l-0.1,0.1L26,5.7L25.9,6
		l-0.3,0.3l-0.1,0.3l-0.1,0.1v0.1l0,0l-0.2,0.1V7v0.1l0,0L25,7h-0.1h-0.1h-0.1l0,0l0,0h0.1h0.1l0,0L25,7.1h-0.1h-0.1h-0.1l0,0
		l0.1,0.1v0.1l0,0l0,0l0,0l0,0l-0.3-0.2V7V6.9l-0.2-0.1l0,0h-0.1h-0.1l0.2-0.2l0.2-0.1V6.4l-0.2-0.1l0,0V6.2h0.2l0,0l0,0l0,0
		l-0.2-0.1V6l-0.1-0.1l0,0l0,0h0.1h0.1V5.8V5.7l0.1-0.1V5.5l0,0l0,0h0.1l-0.1-0.2V5.2h0.1V5.1L24.7,5l0.1-0.1V4.8V4.7V4.6
		c0.2-0.2,0.3-0.4,0.4-0.7c0.1-0.2,0.1-0.3,0.2-0.5l0.1,0.1h0.2l0,0l0,0l0.1-0.1V3.3l0,0l0,0l0.1-0.1h0.2L26,3.3V3.2h-0.1L26,3.1
		L26.1,3l0.3,0.1l0.3,0.1h0.2l0.2,0.2l0.1,0.5L27.1,4z"/>
	<path class="st0" d="M48.9,24.8L48.9,24.8L48.9,24.8L48.9,24.8l0.1-0.1L48.9,24.8L48.9,24.8L48.9,24.8z"/>
</g>
</svg>
