<?xml version="1.0" encoding="utf-8"?>
<!-- Generator: Adobe Illustrator 25.2.3, SVG Export Plug-In . SVG Version: 6.00 Build 0)  -->
<svg version="1.1" id="Capa_1" xmlns="http://www.w3.org/2000/svg" xmlns:xlink="http://www.w3.org/1999/xlink" x="0px" y="0px"
	 viewBox="0 0 70 50" style="enable-background:new 0 0 70 50;" xml:space="preserve">
<style type="text/css">
	.st0{fill:#FFFFFF;}
</style>
<g>
	<path class="st0" d="M25.8,9.9c0.1,0.5-0.1,1-0.6,1.2l0,0c-0.1,0.1-0.2,0.1-0.3,0.1l0,0h-0.1c-0.6,0-1.1-0.4-1.2-1l-1.2-6.4
		c-0.1-0.3,0-0.7,0.2-0.9c0.2-0.3,0.4-0.4,0.8-0.5c0.1,0,0.1,0,0.1,0c0.6,0,1.1,0.4,1.2,1L25.8,9.9z M16.7,14.1l-5.5-4.7
		c-0.2-0.2-0.5-0.3-0.8-0.3c-0.4,0-0.7,0.2-0.9,0.4C9,10.1,9,10.8,9.6,11.3l5.5,4.7c0.2,0.2,0.5,0.3,0.8,0.3c0.2,0,0.4-0.1,0.6-0.2
		c0.1-0.1,0.2-0.2,0.3-0.3l0,0c0.2-0.3,0.3-0.6,0.3-0.9C17.1,14.6,16.9,14.3,16.7,14.1z M12.2,26.2c0.2,0,0.4-0.1,0.6-0.2
		c0.4-0.2,0.6-0.7,0.6-1.1c0-0.7-0.6-1.3-1.3-1.3l-7.5-0.3c-0.4,0-0.7,0.1-0.9,0.4c-0.2,0.2-0.4,0.6-0.4,0.9c0,0.7,0.6,1.3,1.3,1.3
		L12.2,26.2L12.2,26.2z M15.9,33.9c-0.3,0-0.6,0.1-0.8,0.3l-5.7,4.7c-0.5,0.4-0.6,1.2-0.2,1.8c0.2,0.3,0.6,0.5,1,0.5
		c0.2,0,0.4-0.1,0.6-0.2c0.1,0,0.1-0.1,0.2-0.1l5.7-4.7c0.5-0.4,0.6-1.2,0.2-1.8C16.6,34.1,16.2,33.9,15.9,33.9z M24.9,38.6
		c-0.1,0-0.1,0-0.2,0c-0.6,0-1.1,0.4-1.2,1l-1.2,6.5c-0.1,0.6,0.3,1.3,1,1.4l0,0c0.1,0,0.1,0,0.2,0c0.2,0,0.4-0.1,0.6-0.2
		c0.3-0.2,0.5-0.5,0.6-0.8l1.2-6.5c0.1-0.3,0-0.6-0.2-0.9C25.5,38.9,25.2,38.7,24.9,38.6z"/>
	<path class="st0" d="M27.1,15.4c-2.4,0-4.8,1-6.4,2.8c-1.7,1.8-2.6,4.1-2.5,6.6s1.1,4.8,2.9,6.5s4.2,2.7,6.7,2.7
		c0.6,0,1.2-0.1,1.8-0.2c0.8-0.2,1.5,0.4,1.7,1.1c0.1,0.5,0,1-0.4,1.3c-0.2,0.2-0.5,0.4-0.8,0.4c-0.8,0.2-1.5,0.3-2.3,0.3
		c-3.2,0-6.3-1.2-8.7-3.5C14.2,28.7,14,21,18.6,16.2c2.2-2.3,5.3-3.6,8.5-3.6c1.1,0,2.1,0.1,3.1,0.4c0.8,0.2,1.2,1,1.1,1.7
		c-0.2,0.6-0.7,1.1-1.4,1.1c-0.1,0-0.2,0-0.4,0C28.7,15.5,27.9,15.4,27.1,15.4z M55.7,13.6c-0.7,0-1.3,0.1-2,0.2
		c-2.5-5.5-8-9-13.9-9v0.8v1.3v0.8C45,7.6,49.7,11,51.5,16l0.5,1.3l1.3-0.4c0.8-0.3,1.6-0.4,2.4-0.4c4.4-0.1,8,3.6,8.1,8.1
		s-3.5,8.3-7.8,8.3h-3c-0.8,0-1.4,0.7-1.4,1.5s0.7,1.5,1.4,1.4h3c5.9-0.1,10.7-5.1,10.6-11.3C66.5,18.5,61.6,13.5,55.7,13.6z"/>
	<path class="st0" d="M28.6,24c-1-0.3-2-0.7-2.1-1.5c0-0.9,0.9-1.3,1.8-1.3c0.5,0,1.2,0.2,1.6,0.5c0.1,0.1,0.3,0.1,0.4,0.1
		c0.3,0,0.6-0.3,0.6-0.6c0-0.2-0.1-0.4-0.3-0.5c-0.7-0.5-1.5-0.8-2.4-0.8c-1.5,0-3,0.9-3,2.5s1.6,2.3,2.7,2.7
		c1.2,0.4,2.2,0.8,2.2,1.6c0,0.8-1,1.2-2,1.2c-0.7,0-1.3-0.2-1.8-0.5c-0.1-0.1-0.2-0.1-0.4-0.1c-0.4,0-0.6,0.3-0.6,0.6
		c0,0.2,0.1,0.4,0.3,0.5c0.7,0.5,1.7,0.7,2.5,0.7c1.5,0,3.2-0.8,3.2-2.5C31.4,24.9,29.8,24.3,28.6,24z"/>
	<path class="st0" d="M33.4,19.9c-0.3,0-0.6,0.3-0.6,0.6l0.1,7.8c0,0.3,0.3,0.6,0.6,0.6s0.6-0.3,0.6-0.6L34,20.5
		C34,20.2,33.8,19.9,33.4,19.9z"/>
	<path class="st0" d="M48.4,20.3c0-0.3-0.3-0.6-0.6-0.6l-5.7,0.1c-0.3,0-0.6,0.3-0.6,0.6c0,0.3,0.3,0.6,0.6,0.6h2.2l0.1,7.2
		c0,0.3,0.3,0.6,0.6,0.6s0.6-0.3,0.6-0.6V21h2.2C48.2,20.9,48.4,20.7,48.4,20.3z"/>
	<path class="st0" d="M43,28.4L43,28.4l-0.3-0.8l0,0l0,0l-2.9-7.4c-0.1-0.3-0.4-0.5-0.7-0.4c-0.3,0-0.6,0.2-0.7,0.5l-1.1,3.1
		l-0.2,0.5l-1.7,4.7l0,0c0,0.1,0,0.2,0.2,0.3c0.1,0,0.2,0.1,0.3,0.1c0.5,0,0.8-0.4,0.9-0.8l0.6-1.6h3.3l0.6,1.6
		c0.1,0.4,0.5,0.7,1,0.7c0.1,0,0.3,0,0.4-0.1l0,0l0,0C43,28.6,43,28.5,43,28.4z M37.9,25.3l1.1-3l0.1-0.3l0.1,0.3l1.2,3H37.9z"/>
	<path class="st0" d="M54.7,28.3L54.7,28.3l-0.3-0.8l0,0l0,0l-2.9-7.4c-0.1-0.3-0.4-0.4-0.7-0.4s-0.6,0.2-0.7,0.5L49,23.3l-0.2,0.5
		l-1.7,4.7l0,0c0,0.1,0,0.2,0.2,0.3c0.1,0,0.2,0.1,0.3,0.1c0.5,0,0.8-0.4,0.9-0.8l0.6-1.6h3.4l0.6,1.6c0.2,0.4,0.5,0.8,1,0.7
		c0.1,0,0.3,0,0.4-0.1l0,0l0,0C54.7,28.4,54.7,28.3,54.7,28.3z M49.7,25.1l1.1-3l0.1-0.3l0.1,0.3l1.2,3H49.7z"/>
</g>
</svg>
